<svg width="110" height="110" viewBox="0 0 110 110" fill="none" xmlns="http://www.w3.org/2000/svg">
<g filter="url(#filter0_d)">
<path fill-rule="evenodd" clip-rule="evenodd" d="M55 106C83.7188 106 107 82.7188 107 54C107 25.2812 83.7188 2 55 2C26.2812 2 3 25.2812 3 54C3 82.7188 26.2812 106 55 106Z" fill="white"/>
<path fill-rule="evenodd" clip-rule="evenodd" d="M55 106C83.7188 106 107 82.7188 107 54C107 25.2812 83.7188 2 55 2C26.2812 2 3 25.2812 3 54C3 82.7188 26.2812 106 55 106Z" stroke="#DADDE6"/>
</g>
<rect x="34" y="29" width="44" height="27" fill="#BBCFFF" stroke="#3769E5" stroke-width="2"/>
<rect x="34" y="61" width="44" height="3" fill="white" stroke="#3769E5" stroke-width="2"/>
<rect x="34" y="77" width="37" height="3" fill="white" stroke="#3769E5" stroke-width="2"/>
<rect x="34" y="69" width="25" height="3" fill="white" stroke="#3769E5" stroke-width="2"/>
<path d="M47 41L54.1795 48L67 36" stroke="#3769E5" stroke-width="2"/>
<defs>
<filter id="filter0_d" x="0.5" y="0.5" width="109" height="109" filterUnits="userSpaceOnUse" color-interpolation-filters="sRGB">
<feFlood flood-opacity="0" result="BackgroundImageFix"/>
<feColorMatrix in="SourceAlpha" type="matrix" values="0 0 0 0 0 0 0 0 0 0 0 0 0 0 0 0 0 0 127 0"/>
<feOffset dy="1"/>
<feGaussianBlur stdDeviation="1"/>
<feColorMatrix type="matrix" values="0 0 0 0 0.625605 0 0 0 0 0.639953 0 0 0 0 0.678216 0 0 0 0.159091 0"/>
<feBlend mode="normal" in2="BackgroundImageFix" result="effect1_dropShadow"/>
<feBlend mode="normal" in="SourceGraphic" in2="effect1_dropShadow" result="shape"/>
</filter>
</defs>
</svg>
