<svg width="120" height="83" viewBox="0 0 120 83" fill="none" xmlns="http://www.w3.org/2000/svg">
<path fill-rule="evenodd" clip-rule="evenodd" d="M41 1C32.7157 1 26 7.71573 26 16V49.0081C26 57.2924 32.7157 64.0081 41 64.0081H84.1412L98.5 76L96.4152 64.0081H104C112.284 64.0081 119 57.2923 119 49.0081V16C119 7.71573 112.284 1 104 1H41Z" fill="#F2F6FF"/>
<path d="M84.1412 64.0081L84.7822 63.2405C84.6024 63.0904 84.3755 63.0081 84.1412 63.0081V64.0081ZM98.5 76L97.859 76.7675C98.181 77.0365 98.6366 77.0758 99 76.866C99.3633 76.6563 99.5571 76.2421 99.4852 75.8287L98.5 76ZM96.4152 64.0081V63.0081C96.12 63.0081 95.8399 63.1385 95.6499 63.3644C95.4599 63.5903 95.3794 63.8886 95.4299 64.1794L96.4152 64.0081ZM27 16C27 8.26802 33.268 2 41 2V0C32.1634 0 25 7.16345 25 16H27ZM27 49.0081V16H25V49.0081H27ZM41 63.0081C33.268 63.0081 27 56.7401 27 49.0081H25C25 57.8446 32.1634 65.0081 41 65.0081V63.0081ZM84.1412 63.0081H41V65.0081H84.1412V63.0081ZM99.141 75.2325L84.7822 63.2405L83.5002 64.7756L97.859 76.7675L99.141 75.2325ZM95.4299 64.1794L97.5148 76.1713L99.4852 75.8287L97.4004 63.8368L95.4299 64.1794ZM104 63.0081H96.4152V65.0081H104V63.0081ZM118 49.0081C118 56.7401 111.732 63.0081 104 63.0081V65.0081C112.837 65.0081 120 57.8446 120 49.0081H118ZM118 16V49.0081H120V16H118ZM104 2C111.732 2 118 8.26801 118 16H120C120 7.16344 112.837 0 104 0V2ZM41 2H104V0H41V2Z" fill="#4273E6"/>
<path fill-rule="evenodd" clip-rule="evenodd" d="M64 9H100C105.523 9 110 13.4772 110 19V44V48M36 19C36 13.4772 40.4772 9 46 9L36 19Z" fill="#F2F6FF"/>
<path d="M36 19H35C35 19.4045 35.2436 19.7691 35.6173 19.9239C35.991 20.0787 36.4211 19.9931 36.7071 19.7071L36 19ZM46 9L46.7071 9.70711C46.9931 9.42111 47.0787 8.99099 46.9239 8.61732C46.7691 8.24364 46.4045 8 46 8V9ZM64 10H100V8H64V10ZM100 10C104.971 10 109 14.0294 109 19H111C111 12.9249 106.075 8 100 8V10ZM109 19V44H111V19H109ZM109 44V48H111V44H109ZM37 19C37 14.0294 41.0294 10 46 10V8C39.9249 8 35 12.9249 35 19H37ZM45.2929 8.29289L35.2929 18.2929L36.7071 19.7071L46.7071 9.70711L45.2929 8.29289Z" fill="#4273E6"/>
<path fill-rule="evenodd" clip-rule="evenodd" d="M52 29C60.2843 29 67 35.7157 67 44V59.008C67 67.2923 60.2843 74.008 52 74.008H25.5401L14.7688 83L16.3328 74.008H15C6.71573 74.008 0 67.2923 0 59.008V44C0 35.7157 6.71573 29 15 29H52Z" fill="#FFCC2B"/>
</svg>
