<svg width="39" height="39" viewBox="0 0 39 39" fill="none" xmlns="http://www.w3.org/2000/svg">
<path d="M19.5 38C29.7173 38 38 29.7173 38 19.5C38 9.28273 29.7173 1 19.5 1C9.28273 1 1 9.28273 1 19.5C1 29.7173 9.28273 38 19.5 38Z" fill="white" stroke="#3769E5" stroke-width="2"/>
<mask id="mask0" mask-type="alpha" maskUnits="userSpaceOnUse" x="0" y="0" width="39" height="39">
<path d="M19.5 38C29.7173 38 38 29.7173 38 19.5C38 9.28273 29.7173 1 19.5 1C9.28273 1 1 9.28273 1 19.5C1 29.7173 9.28273 38 19.5 38Z" fill="white" stroke="white" stroke-width="2"/>
</mask>
<g mask="url(#mask0)">
<rect x="10.4848" y="12.6061" width="18.0303" height="29.2992" rx="3" fill="white" stroke="#3769E5" stroke-width="2"/>
<path d="M16.1193 15.2355H22.8807" stroke="#3769E5" stroke-width="2" stroke-linecap="round"/>
</g>
</svg>
