<svg width="97" height="17" viewBox="0 0 97 17" fill="none" xmlns="http://www.w3.org/2000/svg">
<path fill-rule="evenodd" clip-rule="evenodd" d="M8.5 12.75L3.50383 15.3766L4.45801 9.81332L0.41602 5.87336L6.00191 5.06168L8.5 0L10.9981 5.06168L16.584 5.87336L12.542 9.81332L13.4962 15.3766L8.5 12.75Z" fill="#FFD32B"/>
<path fill-rule="evenodd" clip-rule="evenodd" d="M28.5 12.75L23.5038 15.3766L24.458 9.81332L20.416 5.87336L26.0019 5.06168L28.5 0L30.9981 5.06168L36.584 5.87336L32.542 9.81332L33.4962 15.3766L28.5 12.75Z" fill="#FFD32B"/>
<path fill-rule="evenodd" clip-rule="evenodd" d="M48.5 12.75L43.5038 15.3766L44.458 9.81332L40.416 5.87336L46.0019 5.06168L48.5 0L50.9981 5.06168L56.584 5.87336L52.542 9.81332L53.4962 15.3766L48.5 12.75Z" fill="#FFD32B"/>
<path fill-rule="evenodd" clip-rule="evenodd" d="M68.5 12.75L63.5038 15.3766L64.458 9.81332L60.416 5.87336L66.0019 5.06168L68.5 0L70.9981 5.06168L76.584 5.87336L72.542 9.81332L73.4962 15.3766L68.5 12.75Z" fill="#FFD32B"/>
<path fill-rule="evenodd" clip-rule="evenodd" d="M88.5 12.75L83.5038 15.3766L84.458 9.81332L80.416 5.87336L86.0019 5.06168L88.5 0L90.9981 5.06168L96.584 5.87336L92.542 9.81332L93.4962 15.3766L88.5 12.75Z" fill="#FFD32B"/>
</svg>
