<svg width="107" height="61" viewBox="0 0 107 61" fill="none" xmlns="http://www.w3.org/2000/svg">
<path fill-rule="evenodd" clip-rule="evenodd" d="M2 29.2389L9.53659 27.7257V22.177L10.039 18.646L12.5512 17.6372L13.5561 13.0973L22.6 11.0796L29.6341 6.53982L34.6585 10.0708L31.1415 12.0885L26.6195 12.5929L25.1122 13.6018L42.1951 20.6637L46.2146 17.1327L50.7366 19.6549L54.2537 17.1327L61.7902 13.0973L64.8049 16.1239L62.2927 20.1593L69.3268 19.1504L70.3317 17.6372L72.3415 20.1593L84.9024 13.0973H86.4098L89.9268 10.5752L97.9659 2L100.98 4.52212L97.4634 10.0708L100.478 11.0796L98.9707 21.1681L105 34.7876L102.99 36.8053L97.9659 26.2124L96.961 21.6726L93.4439 23.6903V28.2301L85.9073 33.7788L86.4098 41.3451L90.9317 38.823L93.9463 46.3894V55.469L88.922 59L87.9171 55.9734L90.9317 52.4425V47.9027L87.4146 50.4248L81.8878 48.9115L79.8781 45.885H74.8537L73.8488 52.4425L68.322 53.4513L58.2732 50.9292L53.2488 53.4513L49.7317 51.9381L45.2098 52.9469L39.1805 46.8938L36.6683 42.354L29.1317 37.3097L25.1122 39.8319L15.5659 32.7699H12.5512L11.0439 38.3186L6.01951 40.3363L2 29.2389Z" stroke="#3855B3" stroke-width="2"/>
</svg>
