<svg width="71" height="70" viewBox="0 0 71 70" fill="none" xmlns="http://www.w3.org/2000/svg">
<path fill-rule="evenodd" clip-rule="evenodd" d="M36.8566 58.9499C49.1205 58.9499 59.0624 49.1109 59.0624 36.9737C59.0624 24.8366 49.1205 14.9976 36.8566 14.9976C24.5927 14.9976 14.6509 24.8366 14.6509 36.9737C14.6509 49.1109 24.5927 58.9499 36.8566 58.9499Z" fill="url(#paint0_angular)"/>
<path d="M37.2367 58.6592C41.0196 58.6592 44.5138 57.7732 47.7193 56.0012C50.9248 54.2292 53.4235 51.83 55.2154 48.8037L48.1075 44.6823C47.112 46.514 45.6486 47.9575 43.7174 49.0127C41.7861 50.068 39.6259 50.5956 37.2367 50.5956C33.175 50.5956 29.8898 49.3213 27.3812 46.7729C24.9123 44.1845 23.6779 40.8994 23.6779 36.9174C23.6779 32.8955 24.9123 29.5905 27.3812 27.0022C29.8898 24.4537 33.175 23.1794 37.2367 23.1794C39.6259 23.1794 41.7761 23.7071 43.6875 24.7623C45.5989 25.8175 47.0722 27.2809 48.1075 29.1525L55.2154 25.0311C53.4235 22.0047 50.9248 19.6056 47.7193 17.8336C44.5138 16.0616 41.0196 15.1756 37.2367 15.1756C30.9849 15.1756 25.7884 17.2662 21.6471 21.4473C17.5456 25.5487 15.4949 30.7054 15.4949 36.9174C15.4949 43.0895 17.5456 48.2462 21.6471 52.3875C25.7884 56.5686 30.9849 58.6592 37.2367 58.6592Z" fill="url(#paint1_angular)"/>
<path fill-rule="evenodd" clip-rule="evenodd" d="M46.568 42.8658C44.5936 45.814 41.6318 47.2881 37.6829 47.2881C34.4101 47.2881 31.7459 46.2873 29.6903 44.2858C27.6617 42.2572 26.6475 39.7012 26.6475 36.6178C26.6475 33.6155 27.6482 31.0866 29.6497 29.0309C31.6242 26.9753 34.1937 25.9475 37.3583 25.9475C40.3065 25.9475 42.7408 26.9888 44.6612 29.0715C46.5816 31.1542 47.5417 33.6831 47.5417 36.6584C47.5417 37.1993 47.4877 37.8079 47.3795 38.4841H31.232C31.5566 39.9987 32.2937 41.1753 33.4432 42.0138C34.5927 42.8523 36.0195 43.2715 37.7235 43.2715C40.0225 43.2715 41.7671 42.433 42.9572 40.7561L46.568 42.8658ZM31.1915 34.9138H43.1195C42.8219 33.318 42.1525 32.0873 41.1112 31.2218C40.0698 30.3563 38.8054 29.9235 37.3177 29.9235C35.6949 29.9235 34.3425 30.3698 33.2606 31.2624C32.1787 32.1549 31.489 33.3721 31.1915 34.9138Z" fill="white"/>
<path d="M16.0035 52.0535C18.7164 55.6537 22.0659 58.3434 26.052 60.1228C30.038 61.9021 34.1143 62.5587 38.2809 62.0927L37.1075 52.3711C34.6495 52.7379 32.2257 52.3809 29.8359 51.3C27.4461 50.2191 25.3945 48.5418 23.6811 46.268C20.7683 42.4025 19.6255 38.3618 20.2529 34.1458C20.9468 29.9391 23.1894 26.4072 26.9809 23.5502C30.8102 20.6646 34.8423 19.468 39.0773 19.9606C43.3029 20.5196 46.8722 22.7318 49.785 26.5973C51.4985 28.8711 52.5382 31.2961 52.9042 33.8722C53.2702 36.4484 52.9335 38.9005 51.894 41.2287L60.9156 45.0362C62.512 41.1595 63.0044 37.0601 62.3927 32.738C61.781 28.416 60.1187 24.4548 57.4058 20.8546C52.9223 14.9048 47.205 11.4592 40.2541 10.5179C33.4075 9.55723 27.0269 11.3054 21.1123 15.7624C15.2356 20.1908 11.7965 25.8424 10.7948 32.717C9.78376 39.6582 11.52 46.1037 16.0035 52.0535Z" fill="url(#paint2_angular)"/>
<defs>
<radialGradient id="paint0_angular" cx="0" cy="0" r="1" gradientUnits="userSpaceOnUse" gradientTransform="translate(36.8566 36.9737) scale(22.2058 21.9762)">
<stop stop-color="#1D7BE8"/>
<stop offset="0.991448" stop-color="#51B5FF"/>
</radialGradient>
<radialGradient id="paint1_angular" cx="0" cy="0" r="1" gradientUnits="userSpaceOnUse" gradientTransform="translate(35.3552 36.9174) scale(19.8603 21.7418)">
<stop offset="0.0860875" stop-color="#3769E5" stop-opacity="0.01"/>
<stop offset="0.945094" stop-color="#0037C1"/>
</radialGradient>
<radialGradient id="paint2_angular" cx="0" cy="0" r="1" gradientUnits="userSpaceOnUse" gradientTransform="translate(35.3553 34.6634) rotate(53) scale(23.6667 25.9206)">
<stop offset="0.0860875" stop-color="#3769E5" stop-opacity="0.01"/>
<stop offset="0.913139" stop-color="#0020C1"/>
</radialGradient>
</defs>
</svg>
