<svg width="40" height="40" viewBox="0 0 40 40" fill="none" xmlns="http://www.w3.org/2000/svg">
<path fill-rule="evenodd" clip-rule="evenodd" d="M20 40C31.0457 40 40 31.0457 40 20C40 8.9543 31.0457 0 20 0C8.9543 0 0 8.9543 0 20C0 31.0457 8.9543 40 20 40Z" fill="#DBFFEA"/>
<path fill-rule="evenodd" clip-rule="evenodd" d="M13.2163 8L18.2253 12.5698L18.434 14.2315L15.9295 16.101C15.9295 16.101 15.3822 16.9731 15.512 17.3473C15.9479 18.6031 17.4635 19.9127 18.6427 21.0862C19.8639 22.3017 21.0409 23.2967 22.1736 24.0714C22.4604 24.2675 23.6946 23.996 23.6946 23.996L26.1562 21.7094H27.1997L31.7913 26.2792L32 27.3178C32 27.3178 29.913 29.8104 28.6607 30.4335C27.4084 31.0567 21.1472 30.849 14.8859 24.4097C8.62466 17.9705 9.04208 12.1544 9.6682 10.7003C10.2943 9.24631 13.2163 8 13.2163 8Z" fill="#04A36F"/>
</svg>
