<svg width="30" height="30" viewBox="0 0 30 30" fill="none" xmlns="http://www.w3.org/2000/svg">
<path fill-rule="evenodd" clip-rule="evenodd" d="M15 30C23.2843 30 30 23.2843 30 15C30 6.71573 23.2843 0 15 0C6.71573 0 0 6.71573 0 15C0 23.2843 6.71573 30 15 30Z" fill="#DBE5FF"/>
<path fill-rule="evenodd" clip-rule="evenodd" d="M9.91216 6L13.6689 9.42734L13.8254 10.6737L11.9471 12.0757C11.9471 12.0757 11.5366 12.7298 11.634 13.0105C11.9609 13.9523 13.0976 14.9345 13.982 15.8147C14.8979 16.7263 15.7807 17.4726 16.6302 18.0535C16.8453 18.2006 17.7709 17.997 17.7709 17.997L19.6171 16.282H20.3998L23.8435 19.7094L24 20.4883C24 20.4883 22.4347 22.3578 21.4955 22.8251C20.5563 23.2925 15.8604 23.1367 11.1644 18.3073C6.46847 13.4778 6.78153 9.11577 7.25112 8.02525C7.72072 6.93473 9.91216 6 9.91216 6Z" fill="#3769E5"/>
</svg>
