<svg width="71" height="45" viewBox="0 0 71 45" fill="none" xmlns="http://www.w3.org/2000/svg">
<path d="M8.70675 37.7074L7.99928 38.4142L8.70602 39.1216L9.41349 38.4149L8.70675 37.7074ZM26.3108 20.1217L27.0175 20.8292L27.725 20.1224L27.0182 19.415L26.3108 20.1217ZM7.29327 36.2925L6.58653 35.585L5.87906 36.2917L6.5858 36.9992L7.29327 36.2925ZM24.8973 18.7068L25.6048 18L24.898 17.2925L24.1905 17.9993L24.8973 18.7068ZM30.6917 20.0168L29.9843 19.3101L29.2775 20.0176L29.985 20.7243L30.6917 20.0168ZM37.886 27.2036L37.1792 27.9111L37.8867 28.6178L38.5935 27.9103L37.886 27.2036ZM32.1052 18.6019L32.812 17.8944L32.1045 17.1877L31.3977 17.8951L32.1052 18.6019ZM39.2995 25.7886L40.0069 26.4954L40.7137 25.7879L40.0062 25.0812L39.2995 25.7886ZM45.3669 27.0231L44.6594 27.7298L45.3661 28.4373L46.0736 27.7305L45.3669 27.0231ZM68.7067 3.70743L69.4135 4.4149L70.121 3.70816L69.4142 3.00069L68.7067 3.70743ZM43.9534 25.6081L43.2466 24.9006L42.5392 25.6074L43.2459 26.3148L43.9534 25.6081ZM67.2933 2.29248L68.0007 1.58574L67.294 0.878267L66.5865 1.58501L67.2933 2.29248ZM9.41349 38.4149L27.0175 20.8292L25.604 19.4142L8.00001 37L9.41349 38.4149ZM6.5858 36.9992L7.99928 38.4142L9.41423 37.0007L8.00075 35.5857L6.5858 36.9992ZM24.1905 17.9993L6.58653 35.585L8.00001 37L25.604 19.4142L24.1905 17.9993ZM27.0182 19.415L25.6048 18L24.1898 19.4135L25.6033 20.8285L27.0182 19.415ZM29.985 20.7243L37.1792 27.9111L38.5927 26.4961L31.3985 19.3093L29.985 20.7243ZM31.3977 17.8951L29.9843 19.3101L31.3992 20.7236L32.8127 19.3086L31.3977 17.8951ZM40.0062 25.0812L32.812 17.8944L31.3985 19.3093L38.5927 26.4961L40.0062 25.0812ZM38.5935 27.9103L40.0069 26.4954L38.592 25.0819L37.1785 26.4968L38.5935 27.9103ZM46.0736 27.7305L69.4135 4.4149L68 2.99995L44.6601 26.3156L46.0736 27.7305ZM43.2459 26.3148L44.6594 27.7298L46.0743 26.3163L44.6609 24.9014L43.2459 26.3148ZM66.5865 1.58501L43.2466 24.9006L44.6601 26.3156L68 2.99995L66.5865 1.58501ZM69.4142 3.00069L68.0007 1.58574L66.5858 2.99922L67.9993 4.41417L69.4142 3.00069Z" fill="#3854B3"/>
<path fill-rule="evenodd" clip-rule="evenodd" d="M28 21C30.2091 21 32 19.2091 32 17C32 14.7909 30.2091 13 28 13C25.7909 13 24 14.7909 24 17C24 19.2091 25.7909 21 28 21Z" stroke="#3854B3" stroke-width="2"/>
<path fill-rule="evenodd" clip-rule="evenodd" d="M42 33C44.2091 33 46 31.2091 46 29C46 26.7909 44.2091 25 42 25C39.7909 25 38 26.7909 38 29C38 31.2091 39.7909 33 42 33Z" stroke="#3854B3" stroke-width="2"/>
<path fill-rule="evenodd" clip-rule="evenodd" d="M5 44C7.20914 44 9 42.2091 9 40C9 37.7909 7.20914 36 5 36C2.79086 36 1 37.7909 1 40C1 42.2091 2.79086 44 5 44Z" stroke="#3854B3" stroke-width="2"/>
<path d="M58 3H68V12" stroke="#3854B3" stroke-width="2"/>
</svg>
