<svg width="63" height="71" viewBox="0 0 63 71" fill="none" xmlns="http://www.w3.org/2000/svg">
<path fill-rule="evenodd" clip-rule="evenodd" d="M10.955 66C10.955 66 16.4303 70 31.8606 70C47.2909 70 51.7707 66 51.7707 66C51.7707 66 61.7257 65 61.7257 62.5C61.7257 60 63.219 57.5 59.237 49.5C55.255 41.5 41.8157 38 41.8157 38L31.8606 49.5L21.4078 38C21.4078 38 10.955 40 5.97752 47C1 54 1 58 1 61.5C1 65 10.955 66 10.955 66Z" stroke="#3955B4" stroke-width="2"/>
<path fill-rule="evenodd" clip-rule="evenodd" d="M31 35C38.732 35 45 23.0563 45 15.209C45 7.36157 38.732 1 31 1C23.268 1 17 7.36157 17 15.209C17 23.0563 23.268 35 31 35Z" stroke="#3955B4" stroke-width="2"/>
<path d="M10.5 66V52" stroke="#3955B4" stroke-width="2"/>
<path d="M51.5 66V52" stroke="#3955B4" stroke-width="2"/>
<path d="M17 15.8939C17 15.8939 25 15.3636 28 13.7727C31 12.1818 33.5 9 33.5 9C33.5 9 35 12.1818 38 14.303C41 16.4242 45 15.8939 45 15.8939" stroke="#3955B4" stroke-width="2"/>
<path d="M21 38C21 38 22 37 23 35C24 33 24 31 24 31" stroke="#3955B4" stroke-width="2"/>
<path d="M42 38C42 38 41 37 40 35C39 33 39 31 39 31" stroke="#3955B4" stroke-width="2"/>
<path d="M18 39C18 39 18.5 43.5 19 48.5C19.5 53.5 20 55 20 55" stroke="#3955B4" stroke-width="2"/>
<path fill-rule="evenodd" clip-rule="evenodd" d="M21 60C22.6569 60 24 58.6569 24 57C24 55.3431 22.6569 54 21 54C19.3431 54 18 55.3431 18 57C18 58.6569 19.3431 60 21 60Z" stroke="#3955B4" stroke-width="2"/>
<path fill-rule="evenodd" clip-rule="evenodd" d="M36 61C37.1046 61 38 60.1046 38 59C38 57.8954 37.1046 57 36 57C34.8954 57 34 57.8954 34 59C34 60.1046 34.8954 61 36 61Z" stroke="#3955B4" stroke-width="2"/>
<path fill-rule="evenodd" clip-rule="evenodd" d="M44 63C45.1046 63 46 62.1046 46 61C46 59.8954 45.1046 59 44 59C42.8954 59 42 59.8954 42 61C42 62.1046 42.8954 63 44 63Z" stroke="#3955B4" stroke-width="2"/>
<path d="M45 39C45 39 45 41.1053 44.3333 44.2632C43.6667 47.4211 43 49 43 49" stroke="#3955B4" stroke-width="2"/>
<path d="M36 56.5707C36 56.5707 37.5098 46.3675 43.549 48.311C49.5882 50.2544 45.0588 59 45.0588 59" stroke="#3955B4" stroke-width="2"/>
</svg>
