<svg width="240" height="108" viewBox="0 0 240 108" fill="none" xmlns="http://www.w3.org/2000/svg">
<path fill-rule="evenodd" clip-rule="evenodd" d="M56.0635 90.8571C74.7185 90.8571 89.8413 75.8907 89.8413 57.4286C89.8413 38.9665 74.7185 24 56.0635 24C37.4085 24 22.2857 38.9665 22.2857 57.4286C22.2857 75.8907 37.4085 90.8571 56.0635 90.8571Z" fill="url(#paint0_angular)"/>
<path d="M56.6417 90.4149C62.396 90.4149 67.7111 89.0672 72.5871 86.3717C77.4631 83.6763 81.264 80.0269 83.9897 75.4234L73.1777 69.1543C71.6634 71.9406 69.4374 74.1363 66.4997 75.7414C63.562 77.3466 60.276 78.1492 56.6417 78.1492C50.4634 78.1492 45.4663 76.2109 41.6503 72.3343C37.8949 68.3972 36.0171 63.4 36.0171 57.3429C36.0171 51.2252 37.8949 46.1977 41.6503 42.2606C45.4663 38.384 50.4634 36.4457 56.6417 36.4457C60.276 36.4457 63.5469 37.2483 66.4543 38.8534C69.3617 40.4586 71.6029 42.6846 73.1777 45.5314L83.9897 39.2623C81.264 34.6589 77.4631 31.0094 72.5871 28.314C67.7111 25.6186 62.396 24.2709 56.6417 24.2709C47.132 24.2709 39.2274 27.4509 32.928 33.8109C26.6891 40.0497 23.5697 47.8937 23.5697 57.3429C23.5697 66.7314 26.6891 74.5754 32.928 80.8749C39.2274 87.2349 47.132 90.4149 56.6417 90.4149Z" fill="url(#paint1_angular)"/>
<path fill-rule="evenodd" clip-rule="evenodd" d="M70.393 66.0082C67.3896 70.4927 62.8845 72.735 56.8776 72.735C51.8993 72.735 47.8468 71.2127 44.7199 68.1682C41.6342 65.0825 40.0913 61.1945 40.0913 56.5042C40.0913 51.9373 41.6136 48.0905 44.6582 44.9636C47.6616 41.8367 51.5702 40.2733 56.3839 40.2733C60.8685 40.2733 64.5713 41.8573 67.4925 45.0253C70.4136 48.1933 71.8742 52.0402 71.8742 56.5659C71.8742 57.3887 71.7919 58.3145 71.6273 59.343H47.065C47.5588 61.647 48.6799 63.4367 50.4285 64.7122C52.177 65.9876 54.3473 66.6253 56.9393 66.6253C60.4365 66.6253 63.0902 65.3499 64.9005 62.799L70.393 66.0082ZM47.0033 53.9122H65.1473C64.6948 51.4847 63.6765 49.6127 62.0925 48.2962C60.5085 46.9796 58.585 46.3213 56.3222 46.3213C53.8536 46.3213 51.7965 47.0002 50.1508 48.3579C48.505 49.7156 47.4559 51.567 47.0033 53.9122Z" fill="white"/>
<path d="M24.3432 80.3668C28.4699 85.8431 33.5649 89.9346 39.6282 92.6411C45.6915 95.3477 51.892 96.3465 58.2299 95.6377L56.445 80.8499C52.7061 81.4079 49.0191 80.8648 45.384 79.2206C41.7489 77.5765 38.6281 75.025 36.0218 71.5663C31.591 65.6864 29.8528 59.5399 30.8071 53.1268C31.8626 46.7279 35.2739 41.3555 41.0411 37.0096C46.866 32.6202 52.9995 30.8002 59.4414 31.5494C65.8691 32.3997 71.2983 35.7648 75.7291 41.6446C78.3355 45.1034 79.9171 48.7921 80.4738 52.7108C81.0306 56.6294 80.5184 60.3595 78.9372 63.9008L92.6602 69.6926C95.0885 63.7956 95.8375 57.5599 94.907 50.9855C93.9766 44.4111 91.448 38.3857 87.3213 32.9093C80.5013 23.8589 71.8047 18.6178 61.2314 17.1858C50.8169 15.7246 41.1112 18.3838 32.1144 25.1634C23.1752 31.8996 17.9437 40.4963 16.4201 50.9536C14.8822 61.512 17.5232 71.3163 24.3432 80.3668Z" fill="url(#paint2_angular)"/>
<path fill-rule="evenodd" clip-rule="evenodd" d="M153.291 39.6V77.1428H146.657V39.6H153.291ZM135.729 75.5743C132.969 77.1 129.96 77.8628 126.703 77.8628C121.32 77.8628 116.846 76.0628 113.28 72.4628C109.749 68.8971 107.983 64.4571 107.983 59.1428C107.983 53.7943 109.749 49.3543 113.28 45.8228C116.846 42.2228 121.32 40.4228 126.703 40.4228C129.96 40.4228 132.969 41.1857 135.729 42.7114C138.489 44.2371 140.64 46.3028 142.183 48.9085L136.063 52.4571C135.171 50.8457 133.903 49.5857 132.257 48.6771C130.611 47.7685 128.76 47.3143 126.703 47.3143C123.206 47.3143 120.377 48.4114 118.217 50.6057C116.091 52.8343 115.029 55.68 115.029 59.1428C115.029 62.5714 116.091 65.4 118.217 67.6285C120.377 69.8228 123.206 70.92 126.703 70.92C128.76 70.92 130.62 70.4657 132.283 69.5571C133.946 68.6485 135.206 67.4057 136.063 65.8285L142.183 69.3771C140.64 71.9828 138.489 74.0485 135.729 75.5743ZM162.651 48.3428C163.783 48.3428 164.751 47.94 165.557 47.1343C166.363 46.3285 166.766 45.3771 166.766 44.28C166.766 43.1828 166.363 42.2228 165.557 41.4C164.751 40.5771 163.783 40.1657 162.651 40.1657C161.554 40.1657 160.603 40.5771 159.797 41.4C158.991 42.2228 158.589 43.1828 158.589 44.28C158.589 45.3771 158.991 46.3285 159.797 47.1343C160.603 47.94 161.554 48.3428 162.651 48.3428ZM165.994 51.4285V77.1428H159.36V51.4285H165.994ZM178.697 77.1428V63.2571C178.697 61.1657 179.203 59.58 180.214 58.5C181.226 57.42 182.606 56.88 184.354 56.88C185.931 56.88 187.174 57.3428 188.083 58.2685C188.991 59.1943 189.446 60.4971 189.446 62.1771V77.1428H196.08V61.3543C196.08 58.0628 195.154 55.4571 193.303 53.5371C191.52 51.6514 189.206 50.7085 186.36 50.7085C182.829 50.7085 180.274 51.9085 178.697 54.3085V51.4285H172.063V77.1428H178.697ZM207.934 47.1343C207.129 47.94 206.16 48.3428 205.029 48.3428C203.931 48.3428 202.98 47.94 202.174 47.1343C201.369 46.3285 200.966 45.3771 200.966 44.28C200.966 43.1828 201.369 42.2228 202.174 41.4C202.98 40.5771 203.931 40.1657 205.029 40.1657C206.16 40.1657 207.129 40.5771 207.934 41.4C208.74 42.2228 209.143 43.1828 209.143 44.28C209.143 45.3771 208.74 46.3285 207.934 47.1343ZM208.371 77.1428V51.4285H201.737V77.1428H208.371ZM233.494 76.0628C231.42 77.2628 229.149 77.8628 226.68 77.8628C222.806 77.8628 219.566 76.56 216.96 73.9543C214.389 71.3485 213.103 68.1257 213.103 64.2857C213.103 60.4457 214.389 57.2228 216.96 54.6171C219.566 52.0114 222.806 50.7085 226.68 50.7085C229.183 50.7085 231.463 51.3085 233.52 52.5085C235.577 53.7085 237.137 55.32 238.2 57.3428L232.491 60.6857C231.977 59.6228 231.197 58.7828 230.151 58.1657C229.106 57.5485 227.931 57.24 226.629 57.24C224.64 57.24 222.994 57.9 221.691 59.22C220.389 60.54 219.737 62.2285 219.737 64.2857C219.737 66.2743 220.389 67.9543 221.691 69.3257C222.994 70.6285 224.64 71.28 226.629 71.28C227.966 71.28 229.157 70.98 230.203 70.38C231.249 69.78 232.029 68.9485 232.543 67.8857L238.303 71.1771C237.171 73.2343 235.569 74.8628 233.494 76.0628Z" fill="black"/>
<defs>
<radialGradient id="paint0_angular" cx="0" cy="0" r="1" gradientUnits="userSpaceOnUse" gradientTransform="translate(56.0635 57.4286) scale(33.7778 33.4286)">
<stop stop-color="#1D7BE8"/>
<stop offset="0.991448" stop-color="#51B5FF"/>
</radialGradient>
<radialGradient id="paint1_angular" cx="0" cy="0" r="1" gradientUnits="userSpaceOnUse" gradientTransform="translate(53.7797 57.3429) scale(30.21 33.072)">
<stop offset="0.0860875" stop-color="#3769E5" stop-opacity="0.01"/>
<stop offset="0.945094" stop-color="#0037C1"/>
</radialGradient>
<radialGradient id="paint2_angular" cx="0" cy="0" r="1" gradientUnits="userSpaceOnUse" gradientTransform="translate(53.7797 53.9143) rotate(53) scale(36 39.4286)">
<stop offset="0.0860875" stop-color="#3769E5" stop-opacity="0.01"/>
<stop offset="0.913139" stop-color="#0020C1"/>
</radialGradient>
</defs>
</svg>
