<svg width="270" height="55" viewBox="0 0 270 55" fill="none" xmlns="http://www.w3.org/2000/svg">
<g clip-path="url(#clip0)">
<g filter="url(#filter0_d)">
<rect x="13" y="6" width="244" height="43" rx="21.5" fill="url(#paint0_linear)"/>
</g>
<rect width="270" height="55" rx="27.5" fill="url(#paint1_linear)"/>
<path opacity="0.61377" fill-rule="evenodd" clip-rule="evenodd" d="M22.9011 50.5055C23.4434 50.8291 24.0632 51 24.6947 51H246.262C246.847 51 247.422 50.8533 247.936 50.5734C251.121 48.8381 249.888 44 246.262 44H24.6947C21.1405 44 19.8491 48.6841 22.9011 50.5055Z" fill="url(#paint2_linear)"/>
<path opacity="0.61377" fill-rule="evenodd" clip-rule="evenodd" d="M22.9011 2.49451C23.4434 2.17087 24.0632 2 24.6947 2H246.262C246.847 2 247.422 2.14668 247.936 2.42662C251.121 4.16194 249.888 9 246.262 9H24.6947C21.1405 9 19.8491 4.31586 22.9011 2.49451Z" fill="url(#paint3_linear)"/>
<path d="M44.988 32V19.994H34.188V32H36.744V22.244H42.414V32H44.988ZM51.332 32.216C54.212 32.216 55.94 30.128 55.94 27.644C55.94 25.178 54.212 23.09 51.332 23.09C48.47 23.09 46.742 25.178 46.742 27.644C46.742 30.128 48.47 32.216 51.332 32.216ZM51.332 30.182C49.91 30.182 49.118 29.012 49.118 27.644C49.118 26.294 49.91 25.124 51.332 25.124C52.754 25.124 53.564 26.294 53.564 27.644C53.564 29.012 52.754 30.182 51.332 30.182ZM65.808 32V23.306H57.636V32H59.922V25.304H63.522V32H65.808ZM73.0454 32.216C75.2774 32.216 76.8974 30.542 76.8974 27.644C76.8974 24.746 75.2774 23.09 73.0454 23.09C71.9834 23.09 71.0294 23.558 70.3634 24.404V23.306H68.0774V35.312H70.3634V30.884C71.0654 31.784 72.0194 32.216 73.0454 32.216ZM72.3254 30.182C71.5874 30.182 70.7414 29.732 70.3634 29.192V26.114C70.7414 25.556 71.5874 25.124 72.3254 25.124C73.6394 25.124 74.5214 26.15 74.5214 27.644C74.5214 29.156 73.6394 30.182 72.3254 30.182ZM82.6035 32.216C85.4835 32.216 87.2115 30.128 87.2115 27.644C87.2115 25.178 85.4835 23.09 82.6035 23.09C79.7415 23.09 78.0135 25.178 78.0135 27.644C78.0135 30.128 79.7415 32.216 82.6035 32.216ZM82.6035 30.182C81.1815 30.182 80.3895 29.012 80.3895 27.644C80.3895 26.294 81.1815 25.124 82.6035 25.124C84.0255 25.124 84.8355 26.294 84.8355 27.644C84.8355 29.012 84.0255 30.182 82.6035 30.182ZM92.9394 30.182C91.5174 30.182 90.7254 29.012 90.7254 27.608C90.7254 26.294 91.5174 25.124 92.9394 25.124C94.3614 25.124 95.1714 26.294 95.1714 27.608C95.1714 29.012 94.3614 30.182 92.9394 30.182ZM92.9394 32.216C95.8374 32.216 97.5294 30.074 97.5294 27.626C97.5294 25.214 95.9094 23.09 93.4254 23.09C92.2194 23.09 91.1574 23.594 90.4554 24.512C90.6894 23.504 91.5354 22.604 93.5874 22.334C95.0094 22.154 97.2054 21.686 97.2054 19.994H94.8294C94.8294 20.3 94.3254 20.516 92.8674 20.732C89.8794 21.128 88.3494 23.018 88.3494 27.248C88.3494 30.074 90.0414 32.216 92.9394 32.216ZM103.328 32.216C106.208 32.216 107.936 30.128 107.936 27.644C107.936 25.178 106.208 23.09 103.328 23.09C100.466 23.09 98.7381 25.178 98.7381 27.644C98.7381 30.128 100.466 32.216 103.328 32.216ZM103.328 30.182C101.906 30.182 101.114 29.012 101.114 27.644C101.114 26.294 101.906 25.124 103.328 25.124C104.75 25.124 105.56 26.294 105.56 27.644C105.56 29.012 104.75 30.182 103.328 30.182ZM115.302 32C117.048 32 117.984 30.956 117.984 29.642C117.984 28.598 117.282 27.734 116.328 27.518C117.138 27.284 117.804 26.582 117.804 25.538C117.804 24.368 116.904 23.306 115.14 23.306H109.632V32H115.302ZM114.744 30.128H111.918V28.508H114.744C115.32 28.508 115.644 28.886 115.644 29.318C115.644 29.822 115.302 30.128 114.744 30.128ZM114.672 26.636H111.918V25.178H114.672C115.176 25.178 115.482 25.484 115.482 25.916C115.482 26.312 115.176 26.636 114.672 26.636ZM127.685 32V26.384C127.685 23.882 125.867 23.09 123.887 23.09C122.519 23.09 121.151 23.522 120.089 24.458L120.953 25.988C121.691 25.304 122.555 24.962 123.491 24.962C124.643 24.962 125.399 25.538 125.399 26.42V27.59C124.823 26.906 123.797 26.528 122.645 26.528C121.259 26.528 119.621 27.302 119.621 29.336C119.621 31.28 121.259 32.216 122.645 32.216C123.779 32.216 124.805 31.802 125.399 31.1V32H127.685ZM123.563 30.668C122.663 30.668 121.925 30.2 121.925 29.39C121.925 28.544 122.663 28.076 123.563 28.076C124.301 28.076 125.021 28.328 125.399 28.832V29.912C125.021 30.416 124.301 30.668 123.563 30.668ZM133.858 32V25.304H136.288V23.306H129.124V25.304H131.554V32H133.858ZM137.722 23.306V32H142.978C144.922 32 146.002 30.686 146.002 29.138C146.002 27.608 144.994 26.294 142.978 26.294H140.008V23.306H137.722ZM142.636 28.202C143.284 28.202 143.662 28.598 143.662 29.138C143.662 29.678 143.284 30.074 142.636 30.074H140.008V28.202H142.636ZM156.309 30.182C154.887 30.182 154.095 29.012 154.095 27.608C154.095 26.294 154.887 25.124 156.309 25.124C157.731 25.124 158.541 26.294 158.541 27.608C158.541 29.012 157.731 30.182 156.309 30.182ZM156.309 32.216C159.207 32.216 160.899 30.074 160.899 27.626C160.899 25.214 159.279 23.09 156.795 23.09C155.589 23.09 154.527 23.594 153.825 24.512C154.059 23.504 154.905 22.604 156.957 22.334C158.379 22.154 160.575 21.686 160.575 19.994H158.199C158.199 20.3 157.695 20.516 156.237 20.732C153.249 21.128 151.719 23.018 151.719 27.248C151.719 30.074 153.411 32.216 156.309 32.216ZM166.751 32.216C168.101 32.216 169.469 31.802 170.333 31.01L169.325 29.534C168.767 30.074 167.741 30.398 167.003 30.398C165.527 30.398 164.645 29.48 164.501 28.382H170.963V27.878C170.963 25.034 169.199 23.09 166.607 23.09C163.961 23.09 162.107 25.124 162.107 27.644C162.107 30.434 164.105 32.216 166.751 32.216ZM168.749 26.834H164.465C164.573 25.97 165.185 24.908 166.607 24.908C168.119 24.908 168.695 26.006 168.749 26.834ZM176.664 32.216C178.446 32.216 179.526 31.442 180.102 30.632L178.608 29.246C178.194 29.822 177.564 30.182 176.772 30.182C175.386 30.182 174.414 29.156 174.414 27.644C174.414 26.132 175.386 25.124 176.772 25.124C177.564 25.124 178.194 25.448 178.608 26.06L180.102 24.656C179.526 23.864 178.446 23.09 176.664 23.09C173.982 23.09 172.056 24.98 172.056 27.644C172.056 30.326 173.982 32.216 176.664 32.216ZM189.769 32V23.306H181.597V32H183.883V25.304H187.483V32H189.769ZM191.228 32.216C193.442 32.216 194.522 30.794 194.882 27.788L195.17 25.304H197.924V32H200.21V23.306H193.172L192.614 27.518C192.344 29.624 191.93 30.344 191.228 30.344V32.216ZM209.986 32V26.384C209.986 23.882 208.168 23.09 206.188 23.09C204.82 23.09 203.452 23.522 202.39 24.458L203.254 25.988C203.992 25.304 204.856 24.962 205.792 24.962C206.944 24.962 207.7 25.538 207.7 26.42V27.59C207.124 26.906 206.098 26.528 204.946 26.528C203.56 26.528 201.922 27.302 201.922 29.336C201.922 31.28 203.56 32.216 204.946 32.216C206.08 32.216 207.106 31.802 207.7 31.1V32H209.986ZM205.864 30.668C204.964 30.668 204.226 30.2 204.226 29.39C204.226 28.544 204.964 28.076 205.864 28.076C206.602 28.076 207.322 28.328 207.7 28.832V29.912C207.322 30.416 206.602 30.668 205.864 30.668ZM216.159 32V25.304H218.589V23.306H211.425V25.304H213.855V32H216.159ZM222.309 32V28.526H225.909V32H228.195V23.306H225.909V26.528H222.309V23.306H220.023V32H222.309ZM234.496 32.216C237.376 32.216 239.104 30.128 239.104 27.644C239.104 25.178 237.376 23.09 234.496 23.09C231.634 23.09 229.906 25.178 229.906 27.644C229.906 30.128 231.634 32.216 234.496 32.216ZM234.496 30.182C233.074 30.182 232.282 29.012 232.282 27.644C232.282 26.294 233.074 25.124 234.496 25.124C235.918 25.124 236.728 26.294 236.728 27.644C236.728 29.012 235.918 30.182 234.496 30.182Z" fill="black"/>
</g>
<defs>
<filter id="filter0_d" x="0" y="3" width="270" height="69" filterUnits="userSpaceOnUse" color-interpolation-filters="sRGB">
<feFlood flood-opacity="0" result="BackgroundImageFix"/>
<feColorMatrix in="SourceAlpha" type="matrix" values="0 0 0 0 0 0 0 0 0 0 0 0 0 0 0 0 0 0 127 0"/>
<feOffset dy="10"/>
<feGaussianBlur stdDeviation="6.5"/>
<feColorMatrix type="matrix" values="0 0 0 0 0.858328 0 0 0 0 0.608286 0 0 0 0 0.0179091 0 0 0 1 0"/>
<feBlend mode="normal" in2="BackgroundImageFix" result="effect1_dropShadow"/>
<feBlend mode="normal" in="SourceGraphic" in2="effect1_dropShadow" result="shape"/>
</filter>
<linearGradient id="paint0_linear" x1="13" y1="6" x2="13" y2="49" gradientUnits="userSpaceOnUse">
<stop stop-color="#FFE856"/>
<stop offset="1" stop-color="#FFB60C"/>
</linearGradient>
<linearGradient id="paint1_linear" x1="0" y1="0" x2="0" y2="55" gradientUnits="userSpaceOnUse">
<stop stop-color="#FFE856"/>
<stop offset="1" stop-color="#FFB60C"/>
</linearGradient>
<linearGradient id="paint2_linear" x1="12" y1="51" x2="12" y2="44" gradientUnits="userSpaceOnUse">
<stop stop-color="#FFE856"/>
<stop offset="1" stop-color="#FFB60C" stop-opacity="0.01"/>
</linearGradient>
<linearGradient id="paint3_linear" x1="12" y1="2" x2="12" y2="9" gradientUnits="userSpaceOnUse">
<stop stop-color="#FFF19B"/>
<stop offset="1" stop-color="#FFB60C" stop-opacity="0.01"/>
</linearGradient>
<clipPath id="clip0">
<rect width="270" height="55" fill="white"/>
</clipPath>
</defs>
</svg>
